<svg xmlns="http://www.w3.org/2000/svg" viewBox="0 0 1600 1080">
  <defs>
    <linearGradient id="bg" x1="0" y1="0" x2="1" y2="1">
      <stop offset="0%" stop-color="#f8f8f5"/>
      <stop offset="52%" stop-color="#d8d8d2"/>
      <stop offset="100%" stop-color="#b7b7b0"/>
    </linearGradient>
  </defs>
  <rect width="1600" height="1080" fill="url(#bg)"/>
  <g fill="#ffffff" fill-opacity=".34">
    <circle cx="1250" cy="250" r="175"/>
    <circle cx="390" cy="760" r="210"/>
  </g>
  <g fill="none" stroke="#71716b" stroke-opacity=".45" stroke-linecap="round">
    <path d="M140 856c110-148 228-278 360-378 126-95 272-168 470-228 132-40 266-64 430-74" stroke-width="2.8"/>
    <path d="M110 942c122-132 254-242 396-328 148-90 300-150 480-198 154-40 304-62 504-66" stroke-width="1.6"/>
    <path d="M220 720c120-112 236-194 356-258 132-70 274-120 454-160" stroke-width="1.4"/>
  </g>
  <g stroke="#8b8b85" stroke-opacity=".36" stroke-width="1.6">
    <line x1="250" y1="140" x2="250" y2="980"/>
    <line x1="860" y1="80" x2="860" y2="1020"/>
    <line x1="1280" y1="150" x2="1280" y2="940"/>
  </g>
</svg>
