<svg xmlns="http://www.w3.org/2000/svg" viewBox="0 0 1600 1080">
  <defs>
    <linearGradient id="bg" x1="0" y1="1" x2="1" y2="0">
      <stop offset="0%" stop-color="#fafaf7"/>
      <stop offset="58%" stop-color="#d8d8d1"/>
      <stop offset="100%" stop-color="#b1b1a9"/>
    </linearGradient>
  </defs>
  <rect width="1600" height="1080" fill="url(#bg)"/>
  <g fill="#ffffff" fill-opacity=".4">
    <path d="M930 110h420v760H930z"/>
    <path d="M990 170h300v640H990z"/>
  </g>
  <g fill="none" stroke="#6f6f69" stroke-opacity=".42" stroke-linecap="round">
    <path d="M160 900c146-150 282-260 422-340 164-94 332-142 546-154 92-6 194-4 312 10" stroke-width="2.6"/>
    <path d="M120 990c156-134 306-228 458-292 174-74 342-108 538-108 102 0 196 8 286 22" stroke-width="1.6"/>
    <path d="M442 148c-4 156 28 286 88 396 70 130 170 236 338 390" stroke-width="2.1"/>
  </g>
  <g stroke="#8a8a84" stroke-opacity=".38" stroke-width="1.5" fill="none">
    <rect x="930" y="110" width="420" height="760"/>
    <rect x="990" y="170" width="300" height="640"/>
  </g>
</svg>
