<svg xmlns="http://www.w3.org/2000/svg" viewBox="0 0 1600 1080">
  <defs>
    <linearGradient id="bg" x1="1" y1="0" x2="0" y2="1">
      <stop offset="0%" stop-color="#f8f8f6"/>
      <stop offset="50%" stop-color="#d4d4ce"/>
      <stop offset="100%" stop-color="#adada6"/>
    </linearGradient>
  </defs>
  <rect width="1600" height="1080" fill="url(#bg)"/>
  <g fill="#ffffff" fill-opacity=".34">
    <circle cx="1200" cy="240" r="210"/>
    <circle cx="1210" cy="240" r="130"/>
    <rect x="240" y="180" width="320" height="220" rx="16"/>
  </g>
  <g fill="none" stroke="#696963" stroke-opacity=".42" stroke-linecap="round">
    <path d="M120 752c168 34 322 50 466 34 176-20 334-88 512-214 98-70 192-156 284-252" stroke-width="2.5"/>
    <path d="M120 850c184 22 350 20 510-8 188-34 356-118 518-270 82-76 154-156 222-236" stroke-width="1.6"/>
    <path d="M632 140c-54 110-86 224-90 338-6 148 38 288 164 482" stroke-width="2"/>
  </g>
  <g stroke="#888882" stroke-opacity=".3" stroke-width="1.6">
    <line x1="160" y1="652" x2="1440" y2="652"/>
    <line x1="160" y1="928" x2="1440" y2="928"/>
  </g>
</svg>
